<?xml version="1.0" encoding="utf-8" standalone="no"?>
<!DOCTYPE svg PUBLIC "-//W3C//DTD SVG 1.1//EN"
  "http://www.w3.org/Graphics/SVG/1.1/DTD/svg11.dtd">
<!-- Created with matplotlib (https://matplotlib.org/) -->
<svg height="209.431353pt" version="1.1" viewBox="0 0 271.292719 209.431353" width="271.292719pt" xmlns="http://www.w3.org/2000/svg" xmlns:xlink="http://www.w3.org/1999/xlink">
 <defs>
  <style type="text/css">
*{stroke-linecap:butt;stroke-linejoin:round;}
  </style>
 </defs>
 <g id="figure_1">
  <g id="patch_1">
   <path d="M 0 209.431353 
L 271.292719 209.431353 
L 271.292719 0 
L 0 0 
z
" style="fill:#ffffff;"/>
  </g>
  <g id="axes_1">
   <g id="patch_2">
    <path d="M 40.892719 173.52 
L 264.092719 173.52 
L 264.092719 7.2 
L 40.892719 7.2 
z
" style="fill:#ffffff;"/>
   </g>
   <g id="PathCollection_1">
    <defs>
     <path d="M -2.236068 0 
L 2.236068 0 
M 0 2.236068 
L 0 -2.236068 
" id="m22334ef60a" style="stroke:#0000ff;stroke-width:1.5;"/>
    </defs>
    <g clip-path="url(#p3364f764a5)">
     <use style="fill:#0000ff;stroke:#0000ff;stroke-width:1.5;" x="51.064424" xlink:href="#m22334ef60a" y="153.437355"/>
     <use style="fill:#0000ff;stroke:#0000ff;stroke-width:1.5;" x="51.064424" xlink:href="#m22334ef60a" y="154.566056"/>
     <use style="fill:#0000ff;stroke:#0000ff;stroke-width:1.5;" x="51.064424" xlink:href="#m22334ef60a" y="142.899706"/>
     <use style="fill:#0000ff;stroke:#0000ff;stroke-width:1.5;" x="51.090957" xlink:href="#m22334ef60a" y="131.065953"/>
     <use style="fill:#0000ff;stroke:#0000ff;stroke-width:1.5;" x="51.112536" xlink:href="#m22334ef60a" y="116.01595"/>
     <use style="fill:#0000ff;stroke:#0000ff;stroke-width:1.5;" x="51.123424" xlink:href="#m22334ef60a" y="140.954394"/>
     <use style="fill:#0000ff;stroke:#0000ff;stroke-width:1.5;" x="51.158526" xlink:href="#m22334ef60a" y="124.021091"/>
     <use style="fill:#0000ff;stroke:#0000ff;stroke-width:1.5;" x="51.159735" xlink:href="#m22334ef60a" y="116.364377"/>
     <use style="fill:#0000ff;stroke:#0000ff;stroke-width:1.5;" x="51.199697" xlink:href="#m22334ef60a" y="145.744592"/>
     <use style="fill:#0000ff;stroke:#0000ff;stroke-width:1.5;" x="51.207318" xlink:href="#m22334ef60a" y="156.100952"/>
     <use style="fill:#0000ff;stroke:#0000ff;stroke-width:1.5;" x="51.213461" xlink:href="#m22334ef60a" y="17.14517"/>
     <use style="fill:#0000ff;stroke:#0000ff;stroke-width:1.5;" x="51.232372" xlink:href="#m22334ef60a" y="136.552911"/>
     <use style="fill:#0000ff;stroke:#0000ff;stroke-width:1.5;" x="51.238865" xlink:href="#m22334ef60a" y="87.18311"/>
     <use style="fill:#0000ff;stroke:#0000ff;stroke-width:1.5;" x="51.243882" xlink:href="#m22334ef60a" y="57.362576"/>
     <use style="fill:#0000ff;stroke:#0000ff;stroke-width:1.5;" x="51.257133" xlink:href="#m22334ef60a" y="110.774271"/>
     <use style="fill:#0000ff;stroke:#0000ff;stroke-width:1.5;" x="51.262463" xlink:href="#m22334ef60a" y="111.674647"/>
     <use style="fill:#0000ff;stroke:#0000ff;stroke-width:1.5;" x="51.351222" xlink:href="#m22334ef60a" y="131.471671"/>
     <use style="fill:#0000ff;stroke:#0000ff;stroke-width:1.5;" x="51.411139" xlink:href="#m22334ef60a" y="158.539356"/>
     <use style="fill:#0000ff;stroke:#0000ff;stroke-width:1.5;" x="51.496445" xlink:href="#m22334ef60a" y="150.605083"/>
     <use style="fill:#0000ff;stroke:#0000ff;stroke-width:1.5;" x="51.527173" xlink:href="#m22334ef60a" y="157.393379"/>
     <use style="fill:#0000ff;stroke:#0000ff;stroke-width:1.5;" x="51.599041" xlink:href="#m22334ef60a" y="162.241665"/>
     <use style="fill:#0000ff;stroke:#0000ff;stroke-width:1.5;" x="51.709861" xlink:href="#m22334ef60a" y="156.689407"/>
     <use style="fill:#0000ff;stroke:#0000ff;stroke-width:1.5;" x="51.791072" xlink:href="#m22334ef60a" y="157.844171"/>
     <use style="fill:#0000ff;stroke:#0000ff;stroke-width:1.5;" x="51.802451" xlink:href="#m22334ef60a" y="156.927257"/>
     <use style="fill:#0000ff;stroke:#0000ff;stroke-width:1.5;" x="51.863804" xlink:href="#m22334ef60a" y="158.022741"/>
     <use style="fill:#0000ff;stroke:#0000ff;stroke-width:1.5;" x="52.213554" xlink:href="#m22334ef60a" y="160.541263"/>
     <use style="fill:#0000ff;stroke:#0000ff;stroke-width:1.5;" x="52.413702" xlink:href="#m22334ef60a" y="158.143655"/>
     <use style="fill:#0000ff;stroke:#0000ff;stroke-width:1.5;" x="52.751349" xlink:href="#m22334ef60a" y="152.214867"/>
     <use style="fill:#0000ff;stroke:#0000ff;stroke-width:1.5;" x="52.797792" xlink:href="#m22334ef60a" y="149.244175"/>
     <use style="fill:#0000ff;stroke:#0000ff;stroke-width:1.5;" x="52.930079" xlink:href="#m22334ef60a" y="149.96251"/>
     <use style="fill:#0000ff;stroke:#0000ff;stroke-width:1.5;" x="53.088394" xlink:href="#m22334ef60a" y="147.393927"/>
     <use style="fill:#0000ff;stroke:#0000ff;stroke-width:1.5;" x="53.252138" xlink:href="#m22334ef60a" y="145.249305"/>
     <use style="fill:#0000ff;stroke:#0000ff;stroke-width:1.5;" x="53.324441" xlink:href="#m22334ef60a" y="144.723255"/>
     <use style="fill:#0000ff;stroke:#0000ff;stroke-width:1.5;" x="53.436441" xlink:href="#m22334ef60a" y="156.557369"/>
     <use style="fill:#0000ff;stroke:#0000ff;stroke-width:1.5;" x="53.60961" xlink:href="#m22334ef60a" y="162.361713"/>
     <use style="fill:#0000ff;stroke:#0000ff;stroke-width:1.5;" x="53.729062" xlink:href="#m22334ef60a" y="161.077137"/>
     <use style="fill:#0000ff;stroke:#0000ff;stroke-width:1.5;" x="53.786517" xlink:href="#m22334ef60a" y="137.809971"/>
     <use style="fill:#0000ff;stroke:#0000ff;stroke-width:1.5;" x="53.990172" xlink:href="#m22334ef60a" y="156.732738"/>
     <use style="fill:#0000ff;stroke:#0000ff;stroke-width:1.5;" x="54.062015" xlink:href="#m22334ef60a" y="153.377152"/>
     <use style="fill:#0000ff;stroke:#0000ff;stroke-width:1.5;" x="54.132981" xlink:href="#m22334ef60a" y="163.020578"/>
     <use style="fill:#0000ff;stroke:#0000ff;stroke-width:1.5;" x="54.311461" xlink:href="#m22334ef60a" y="156.272902"/>
     <use style="fill:#0000ff;stroke:#0000ff;stroke-width:1.5;" x="54.394509" xlink:href="#m22334ef60a" y="159.653395"/>
     <use style="fill:#0000ff;stroke:#0000ff;stroke-width:1.5;" x="54.535701" xlink:href="#m22334ef60a" y="159.243942"/>
     <use style="fill:#0000ff;stroke:#0000ff;stroke-width:1.5;" x="54.854069" xlink:href="#m22334ef60a" y="153.339194"/>
     <use style="fill:#0000ff;stroke:#0000ff;stroke-width:1.5;" x="54.928099" xlink:href="#m22334ef60a" y="161.436415"/>
     <use style="fill:#0000ff;stroke:#0000ff;stroke-width:1.5;" x="55.236018" xlink:href="#m22334ef60a" y="147.74082"/>
     <use style="fill:#0000ff;stroke:#0000ff;stroke-width:1.5;" x="55.470682" xlink:href="#m22334ef60a" y="161.649489"/>
     <use style="fill:#0000ff;stroke:#0000ff;stroke-width:1.5;" x="55.780955" xlink:href="#m22334ef60a" y="163.395476"/>
     <use style="fill:#0000ff;stroke:#0000ff;stroke-width:1.5;" x="55.935578" xlink:href="#m22334ef60a" y="150.731026"/>
     <use style="fill:#0000ff;stroke:#0000ff;stroke-width:1.5;" x="56.219911" xlink:href="#m22334ef60a" y="162.364404"/>
     <use style="fill:#0000ff;stroke:#0000ff;stroke-width:1.5;" x="56.612361" xlink:href="#m22334ef60a" y="163.494038"/>
     <use style="fill:#0000ff;stroke:#0000ff;stroke-width:1.5;" x="56.834468" xlink:href="#m22334ef60a" y="162.432744"/>
     <use style="fill:#0000ff;stroke:#0000ff;stroke-width:1.5;" x="57.320094" xlink:href="#m22334ef60a" y="162.22908"/>
     <use style="fill:#0000ff;stroke:#0000ff;stroke-width:1.5;" x="57.483269" xlink:href="#m22334ef60a" y="160.504976"/>
     <use style="fill:#0000ff;stroke:#0000ff;stroke-width:1.5;" x="57.930032" xlink:href="#m22334ef60a" y="163.526403"/>
     <use style="fill:#0000ff;stroke:#0000ff;stroke-width:1.5;" x="58.108602" xlink:href="#m22334ef60a" y="158.711406"/>
     <use style="fill:#0000ff;stroke:#0000ff;stroke-width:1.5;" x="58.423418" xlink:href="#m22334ef60a" y="157.766493"/>
     <use style="fill:#0000ff;stroke:#0000ff;stroke-width:1.5;" x="58.827936" xlink:href="#m22334ef60a" y="160.817511"/>
     <use style="fill:#0000ff;stroke:#0000ff;stroke-width:1.5;" x="59.169799" xlink:href="#m22334ef60a" y="154.044057"/>
     <use style="fill:#0000ff;stroke:#0000ff;stroke-width:1.5;" x="59.353006" xlink:href="#m22334ef60a" y="160.991395"/>
     <use style="fill:#0000ff;stroke:#0000ff;stroke-width:1.5;" x="60.269447" xlink:href="#m22334ef60a" y="154.607817"/>
     <use style="fill:#0000ff;stroke:#0000ff;stroke-width:1.5;" x="60.358309" xlink:href="#m22334ef60a" y="158.553682"/>
     <use style="fill:#0000ff;stroke:#0000ff;stroke-width:1.5;" x="60.942178" xlink:href="#m22334ef60a" y="162.710244"/>
     <use style="fill:#0000ff;stroke:#0000ff;stroke-width:1.5;" x="61.46325" xlink:href="#m22334ef60a" y="163.239225"/>
     <use style="fill:#0000ff;stroke:#0000ff;stroke-width:1.5;" x="61.602952" xlink:href="#m22334ef60a" y="151.790788"/>
     <use style="fill:#0000ff;stroke:#0000ff;stroke-width:1.5;" x="62.203826" xlink:href="#m22334ef60a" y="160.440747"/>
     <use style="fill:#0000ff;stroke:#0000ff;stroke-width:1.5;" x="62.354002" xlink:href="#m22334ef60a" y="162.230733"/>
     <use style="fill:#0000ff;stroke:#0000ff;stroke-width:1.5;" x="62.649575" xlink:href="#m22334ef60a" y="150.927623"/>
     <use style="fill:#0000ff;stroke:#0000ff;stroke-width:1.5;" x="62.769499" xlink:href="#m22334ef60a" y="161.864374"/>
     <use style="fill:#0000ff;stroke:#0000ff;stroke-width:1.5;" x="63.332229" xlink:href="#m22334ef60a" y="161.280725"/>
     <use style="fill:#0000ff;stroke:#0000ff;stroke-width:1.5;" x="63.842566" xlink:href="#m22334ef60a" y="156.817276"/>
     <use style="fill:#0000ff;stroke:#0000ff;stroke-width:1.5;" x="64.136905" xlink:href="#m22334ef60a" y="156.848528"/>
     <use style="fill:#0000ff;stroke:#0000ff;stroke-width:1.5;" x="64.585138" xlink:href="#m22334ef60a" y="160.058276"/>
     <use style="fill:#0000ff;stroke:#0000ff;stroke-width:1.5;" x="65.35106" xlink:href="#m22334ef60a" y="162.40315"/>
     <use style="fill:#0000ff;stroke:#0000ff;stroke-width:1.5;" x="65.96797" xlink:href="#m22334ef60a" y="163.213041"/>
     <use style="fill:#0000ff;stroke:#0000ff;stroke-width:1.5;" x="66.945947" xlink:href="#m22334ef60a" y="161.318004"/>
     <use style="fill:#0000ff;stroke:#0000ff;stroke-width:1.5;" x="66.965579" xlink:href="#m22334ef60a" y="156.600463"/>
     <use style="fill:#0000ff;stroke:#0000ff;stroke-width:1.5;" x="67.826892" xlink:href="#m22334ef60a" y="161.000525"/>
     <use style="fill:#0000ff;stroke:#0000ff;stroke-width:1.5;" x="68.238749" xlink:href="#m22334ef60a" y="156.043022"/>
     <use style="fill:#0000ff;stroke:#0000ff;stroke-width:1.5;" x="68.323378" xlink:href="#m22334ef60a" y="160.134445"/>
     <use style="fill:#0000ff;stroke:#0000ff;stroke-width:1.5;" x="69.590545" xlink:href="#m22334ef60a" y="159.216637"/>
     <use style="fill:#0000ff;stroke:#0000ff;stroke-width:1.5;" x="70.483704" xlink:href="#m22334ef60a" y="156.817769"/>
     <use style="fill:#0000ff;stroke:#0000ff;stroke-width:1.5;" x="71.18465" xlink:href="#m22334ef60a" y="160.534486"/>
     <use style="fill:#0000ff;stroke:#0000ff;stroke-width:1.5;" x="71.397256" xlink:href="#m22334ef60a" y="163.137754"/>
     <use style="fill:#0000ff;stroke:#0000ff;stroke-width:1.5;" x="71.850721" xlink:href="#m22334ef60a" y="153.291768"/>
     <use style="fill:#0000ff;stroke:#0000ff;stroke-width:1.5;" x="72.642929" xlink:href="#m22334ef60a" y="162.190307"/>
     <use style="fill:#0000ff;stroke:#0000ff;stroke-width:1.5;" x="72.993131" xlink:href="#m22334ef60a" y="160.362711"/>
     <use style="fill:#0000ff;stroke:#0000ff;stroke-width:1.5;" x="73.350069" xlink:href="#m22334ef60a" y="161.474396"/>
     <use style="fill:#0000ff;stroke:#0000ff;stroke-width:1.5;" x="73.774338" xlink:href="#m22334ef60a" y="159.944999"/>
     <use style="fill:#0000ff;stroke:#0000ff;stroke-width:1.5;" x="74.511009" xlink:href="#m22334ef60a" y="154.888243"/>
     <use style="fill:#0000ff;stroke:#0000ff;stroke-width:1.5;" x="75.602481" xlink:href="#m22334ef60a" y="159.398901"/>
     <use style="fill:#0000ff;stroke:#0000ff;stroke-width:1.5;" x="75.879843" xlink:href="#m22334ef60a" y="158.631875"/>
     <use style="fill:#0000ff;stroke:#0000ff;stroke-width:1.5;" x="76.725987" xlink:href="#m22334ef60a" y="163.419259"/>
     <use style="fill:#0000ff;stroke:#0000ff;stroke-width:1.5;" x="77.052123" xlink:href="#m22334ef60a" y="160.051616"/>
     <use style="fill:#0000ff;stroke:#0000ff;stroke-width:1.5;" x="77.549513" xlink:href="#m22334ef60a" y="161.209053"/>
     <use style="fill:#0000ff;stroke:#0000ff;stroke-width:1.5;" x="78.24825" xlink:href="#m22334ef60a" y="161.802239"/>
     <use style="fill:#0000ff;stroke:#0000ff;stroke-width:1.5;" x="79.107569" xlink:href="#m22334ef60a" y="159.630522"/>
     <use style="fill:#0000ff;stroke:#0000ff;stroke-width:1.5;" x="79.538923" xlink:href="#m22334ef60a" y="158.330006"/>
     <use style="fill:#0000ff;stroke:#0000ff;stroke-width:1.5;" x="79.607667" xlink:href="#m22334ef60a" y="162.517651"/>
     <use style="fill:#0000ff;stroke:#0000ff;stroke-width:1.5;" x="80.029621" xlink:href="#m22334ef60a" y="156.047742"/>
     <use style="fill:#0000ff;stroke:#0000ff;stroke-width:1.5;" x="80.341303" xlink:href="#m22334ef60a" y="157.657998"/>
     <use style="fill:#0000ff;stroke:#0000ff;stroke-width:1.5;" x="81.056654" xlink:href="#m22334ef60a" y="160.802685"/>
     <use style="fill:#0000ff;stroke:#0000ff;stroke-width:1.5;" x="82.120631" xlink:href="#m22334ef60a" y="163.57483"/>
     <use style="fill:#0000ff;stroke:#0000ff;stroke-width:1.5;" x="83.387243" xlink:href="#m22334ef60a" y="161.379053"/>
     <use style="fill:#0000ff;stroke:#0000ff;stroke-width:1.5;" x="83.528977" xlink:href="#m22334ef60a" y="157.450509"/>
     <use style="fill:#0000ff;stroke:#0000ff;stroke-width:1.5;" x="84.727967" xlink:href="#m22334ef60a" y="160.539755"/>
     <use style="fill:#0000ff;stroke:#0000ff;stroke-width:1.5;" x="85.623414" xlink:href="#m22334ef60a" y="160.472874"/>
     <use style="fill:#0000ff;stroke:#0000ff;stroke-width:1.5;" x="87.102116" xlink:href="#m22334ef60a" y="157.496233"/>
     <use style="fill:#0000ff;stroke:#0000ff;stroke-width:1.5;" x="87.451063" xlink:href="#m22334ef60a" y="157.494637"/>
     <use style="fill:#0000ff;stroke:#0000ff;stroke-width:1.5;" x="87.820267" xlink:href="#m22334ef60a" y="158.043612"/>
     <use style="fill:#0000ff;stroke:#0000ff;stroke-width:1.5;" x="89.041495" xlink:href="#m22334ef60a" y="161.322454"/>
     <use style="fill:#0000ff;stroke:#0000ff;stroke-width:1.5;" x="90.387911" xlink:href="#m22334ef60a" y="160.380721"/>
     <use style="fill:#0000ff;stroke:#0000ff;stroke-width:1.5;" x="91.169359" xlink:href="#m22334ef60a" y="162.319877"/>
     <use style="fill:#0000ff;stroke:#0000ff;stroke-width:1.5;" x="91.420744" xlink:href="#m22334ef60a" y="159.932856"/>
     <use style="fill:#0000ff;stroke:#0000ff;stroke-width:1.5;" x="91.622676" xlink:href="#m22334ef60a" y="159.48538"/>
     <use style="fill:#0000ff;stroke:#0000ff;stroke-width:1.5;" x="93.010599" xlink:href="#m22334ef60a" y="157.692931"/>
     <use style="fill:#0000ff;stroke:#0000ff;stroke-width:1.5;" x="93.097229" xlink:href="#m22334ef60a" y="162.959113"/>
     <use style="fill:#0000ff;stroke:#0000ff;stroke-width:1.5;" x="93.681896" xlink:href="#m22334ef60a" y="154.402761"/>
     <use style="fill:#0000ff;stroke:#0000ff;stroke-width:1.5;" x="94.990531" xlink:href="#m22334ef60a" y="154.152288"/>
     <use style="fill:#0000ff;stroke:#0000ff;stroke-width:1.5;" x="95.423295" xlink:href="#m22334ef60a" y="163.350877"/>
     <use style="fill:#0000ff;stroke:#0000ff;stroke-width:1.5;" x="96.485861" xlink:href="#m22334ef60a" y="162.481207"/>
     <use style="fill:#0000ff;stroke:#0000ff;stroke-width:1.5;" x="97.275527" xlink:href="#m22334ef60a" y="157.143773"/>
     <use style="fill:#0000ff;stroke:#0000ff;stroke-width:1.5;" x="98.483659" xlink:href="#m22334ef60a" y="159.761571"/>
     <use style="fill:#0000ff;stroke:#0000ff;stroke-width:1.5;" x="98.814741" xlink:href="#m22334ef60a" y="162.191617"/>
     <use style="fill:#0000ff;stroke:#0000ff;stroke-width:1.5;" x="99.459139" xlink:href="#m22334ef60a" y="157.131333"/>
     <use style="fill:#0000ff;stroke:#0000ff;stroke-width:1.5;" x="100.118709" xlink:href="#m22334ef60a" y="163.383945"/>
     <use style="fill:#0000ff;stroke:#0000ff;stroke-width:1.5;" x="100.297403" xlink:href="#m22334ef60a" y="163.432036"/>
     <use style="fill:#0000ff;stroke:#0000ff;stroke-width:1.5;" x="101.487003" xlink:href="#m22334ef60a" y="162.59431"/>
     <use style="fill:#0000ff;stroke:#0000ff;stroke-width:1.5;" x="102.201557" xlink:href="#m22334ef60a" y="159.239294"/>
     <use style="fill:#0000ff;stroke:#0000ff;stroke-width:1.5;" x="102.453875" xlink:href="#m22334ef60a" y="158.379812"/>
     <use style="fill:#0000ff;stroke:#0000ff;stroke-width:1.5;" x="103.918753" xlink:href="#m22334ef60a" y="157.716082"/>
     <use style="fill:#0000ff;stroke:#0000ff;stroke-width:1.5;" x="104.517769" xlink:href="#m22334ef60a" y="156.47934"/>
     <use style="fill:#0000ff;stroke:#0000ff;stroke-width:1.5;" x="105.341198" xlink:href="#m22334ef60a" y="163.000827"/>
     <use style="fill:#0000ff;stroke:#0000ff;stroke-width:1.5;" x="107.395498" xlink:href="#m22334ef60a" y="157.797889"/>
     <use style="fill:#0000ff;stroke:#0000ff;stroke-width:1.5;" x="107.737264" xlink:href="#m22334ef60a" y="153.785989"/>
     <use style="fill:#0000ff;stroke:#0000ff;stroke-width:1.5;" x="107.950552" xlink:href="#m22334ef60a" y="161.149294"/>
     <use style="fill:#0000ff;stroke:#0000ff;stroke-width:1.5;" x="109.370772" xlink:href="#m22334ef60a" y="153.983175"/>
     <use style="fill:#0000ff;stroke:#0000ff;stroke-width:1.5;" x="110.043303" xlink:href="#m22334ef60a" y="163.408884"/>
     <use style="fill:#0000ff;stroke:#0000ff;stroke-width:1.5;" x="110.502821" xlink:href="#m22334ef60a" y="163.005772"/>
     <use style="fill:#0000ff;stroke:#0000ff;stroke-width:1.5;" x="110.919157" xlink:href="#m22334ef60a" y="160.838233"/>
     <use style="fill:#0000ff;stroke:#0000ff;stroke-width:1.5;" x="111.506353" xlink:href="#m22334ef60a" y="162.104954"/>
     <use style="fill:#0000ff;stroke:#0000ff;stroke-width:1.5;" x="111.860727" xlink:href="#m22334ef60a" y="162.386571"/>
     <use style="fill:#0000ff;stroke:#0000ff;stroke-width:1.5;" x="113.45031" xlink:href="#m22334ef60a" y="161.481921"/>
     <use style="fill:#0000ff;stroke:#0000ff;stroke-width:1.5;" x="113.873822" xlink:href="#m22334ef60a" y="155.062677"/>
     <use style="fill:#0000ff;stroke:#0000ff;stroke-width:1.5;" x="114.999603" xlink:href="#m22334ef60a" y="159.879241"/>
     <use style="fill:#0000ff;stroke:#0000ff;stroke-width:1.5;" x="116.0924" xlink:href="#m22334ef60a" y="155.201131"/>
     <use style="fill:#0000ff;stroke:#0000ff;stroke-width:1.5;" x="116.625292" xlink:href="#m22334ef60a" y="162.221157"/>
     <use style="fill:#0000ff;stroke:#0000ff;stroke-width:1.5;" x="117.371246" xlink:href="#m22334ef60a" y="156.314248"/>
     <use style="fill:#0000ff;stroke:#0000ff;stroke-width:1.5;" x="118.199972" xlink:href="#m22334ef60a" y="160.17626"/>
     <use style="fill:#0000ff;stroke:#0000ff;stroke-width:1.5;" x="119.310648" xlink:href="#m22334ef60a" y="163.453775"/>
     <use style="fill:#0000ff;stroke:#0000ff;stroke-width:1.5;" x="120.615874" xlink:href="#m22334ef60a" y="162.667263"/>
     <use style="fill:#0000ff;stroke:#0000ff;stroke-width:1.5;" x="120.971151" xlink:href="#m22334ef60a" y="154.170745"/>
     <use style="fill:#0000ff;stroke:#0000ff;stroke-width:1.5;" x="121.648187" xlink:href="#m22334ef60a" y="162.113659"/>
     <use style="fill:#0000ff;stroke:#0000ff;stroke-width:1.5;" x="123.235656" xlink:href="#m22334ef60a" y="157.468378"/>
     <use style="fill:#0000ff;stroke:#0000ff;stroke-width:1.5;" x="124.092878" xlink:href="#m22334ef60a" y="159.48395"/>
     <use style="fill:#0000ff;stroke:#0000ff;stroke-width:1.5;" x="125.540155" xlink:href="#m22334ef60a" y="159.448547"/>
     <use style="fill:#0000ff;stroke:#0000ff;stroke-width:1.5;" x="126.598535" xlink:href="#m22334ef60a" y="163.34735"/>
     <use style="fill:#0000ff;stroke:#0000ff;stroke-width:1.5;" x="127.4455" xlink:href="#m22334ef60a" y="162.170913"/>
     <use style="fill:#0000ff;stroke:#0000ff;stroke-width:1.5;" x="128.534072" xlink:href="#m22334ef60a" y="159.576638"/>
     <use style="fill:#0000ff;stroke:#0000ff;stroke-width:1.5;" x="129.180987" xlink:href="#m22334ef60a" y="160.7383"/>
     <use style="fill:#0000ff;stroke:#0000ff;stroke-width:1.5;" x="130.02407" xlink:href="#m22334ef60a" y="163.314297"/>
     <use style="fill:#0000ff;stroke:#0000ff;stroke-width:1.5;" x="131.852065" xlink:href="#m22334ef60a" y="160.757995"/>
     <use style="fill:#0000ff;stroke:#0000ff;stroke-width:1.5;" x="132.404664" xlink:href="#m22334ef60a" y="162.208154"/>
     <use style="fill:#0000ff;stroke:#0000ff;stroke-width:1.5;" x="133.59641" xlink:href="#m22334ef60a" y="160.771073"/>
     <use style="fill:#0000ff;stroke:#0000ff;stroke-width:1.5;" x="133.974547" xlink:href="#m22334ef60a" y="160.271915"/>
     <use style="fill:#0000ff;stroke:#0000ff;stroke-width:1.5;" x="134.819868" xlink:href="#m22334ef60a" y="161.856359"/>
     <use style="fill:#0000ff;stroke:#0000ff;stroke-width:1.5;" x="136.129286" xlink:href="#m22334ef60a" y="162.740316"/>
     <use style="fill:#0000ff;stroke:#0000ff;stroke-width:1.5;" x="137.800399" xlink:href="#m22334ef60a" y="162.635925"/>
     <use style="fill:#0000ff;stroke:#0000ff;stroke-width:1.5;" x="140.965375" xlink:href="#m22334ef60a" y="163.073446"/>
     <use style="fill:#0000ff;stroke:#0000ff;stroke-width:1.5;" x="141.394065" xlink:href="#m22334ef60a" y="162.345833"/>
     <use style="fill:#0000ff;stroke:#0000ff;stroke-width:1.5;" x="142.477489" xlink:href="#m22334ef60a" y="159.933124"/>
     <use style="fill:#0000ff;stroke:#0000ff;stroke-width:1.5;" x="143.614089" xlink:href="#m22334ef60a" y="163.401237"/>
     <use style="fill:#0000ff;stroke:#0000ff;stroke-width:1.5;" x="144.966536" xlink:href="#m22334ef60a" y="161.674186"/>
     <use style="fill:#0000ff;stroke:#0000ff;stroke-width:1.5;" x="145.231917" xlink:href="#m22334ef60a" y="163.265372"/>
     <use style="fill:#0000ff;stroke:#0000ff;stroke-width:1.5;" x="146.610939" xlink:href="#m22334ef60a" y="157.657415"/>
     <use style="fill:#0000ff;stroke:#0000ff;stroke-width:1.5;" x="148.895846" xlink:href="#m22334ef60a" y="162.216022"/>
     <use style="fill:#0000ff;stroke:#0000ff;stroke-width:1.5;" x="151.039947" xlink:href="#m22334ef60a" y="161.265307"/>
     <use style="fill:#0000ff;stroke:#0000ff;stroke-width:1.5;" x="151.643204" xlink:href="#m22334ef60a" y="161.687027"/>
     <use style="fill:#0000ff;stroke:#0000ff;stroke-width:1.5;" x="153.093429" xlink:href="#m22334ef60a" y="163.339989"/>
     <use style="fill:#0000ff;stroke:#0000ff;stroke-width:1.5;" x="153.19867" xlink:href="#m22334ef60a" y="157.085259"/>
     <use style="fill:#0000ff;stroke:#0000ff;stroke-width:1.5;" x="153.684971" xlink:href="#m22334ef60a" y="162.369767"/>
     <use style="fill:#0000ff;stroke:#0000ff;stroke-width:1.5;" x="154.7312" xlink:href="#m22334ef60a" y="160.64369"/>
     <use style="fill:#0000ff;stroke:#0000ff;stroke-width:1.5;" x="155.653052" xlink:href="#m22334ef60a" y="162.129686"/>
     <use style="fill:#0000ff;stroke:#0000ff;stroke-width:1.5;" x="159.23142" xlink:href="#m22334ef60a" y="163.524042"/>
     <use style="fill:#0000ff;stroke:#0000ff;stroke-width:1.5;" x="160.360264" xlink:href="#m22334ef60a" y="158.312014"/>
     <use style="fill:#0000ff;stroke:#0000ff;stroke-width:1.5;" x="161.961236" xlink:href="#m22334ef60a" y="160.578369"/>
     <use style="fill:#0000ff;stroke:#0000ff;stroke-width:1.5;" x="162.535121" xlink:href="#m22334ef60a" y="161.968054"/>
     <use style="fill:#0000ff;stroke:#0000ff;stroke-width:1.5;" x="166.871965" xlink:href="#m22334ef60a" y="162.264099"/>
     <use style="fill:#0000ff;stroke:#0000ff;stroke-width:1.5;" x="168.940355" xlink:href="#m22334ef60a" y="159.670355"/>
     <use style="fill:#0000ff;stroke:#0000ff;stroke-width:1.5;" x="169.807349" xlink:href="#m22334ef60a" y="160.36818"/>
     <use style="fill:#0000ff;stroke:#0000ff;stroke-width:1.5;" x="173.218415" xlink:href="#m22334ef60a" y="163.417444"/>
     <use style="fill:#0000ff;stroke:#0000ff;stroke-width:1.5;" x="174.718786" xlink:href="#m22334ef60a" y="162.991553"/>
     <use style="fill:#0000ff;stroke:#0000ff;stroke-width:1.5;" x="176.036508" xlink:href="#m22334ef60a" y="162.753197"/>
     <use style="fill:#0000ff;stroke:#0000ff;stroke-width:1.5;" x="176.447574" xlink:href="#m22334ef60a" y="163.04092"/>
     <use style="fill:#0000ff;stroke:#0000ff;stroke-width:1.5;" x="179.512218" xlink:href="#m22334ef60a" y="163.035328"/>
     <use style="fill:#0000ff;stroke:#0000ff;stroke-width:1.5;" x="183.022999" xlink:href="#m22334ef60a" y="161.98496"/>
     <use style="fill:#0000ff;stroke:#0000ff;stroke-width:1.5;" x="183.417278" xlink:href="#m22334ef60a" y="162.251374"/>
     <use style="fill:#0000ff;stroke:#0000ff;stroke-width:1.5;" x="186.054749" xlink:href="#m22334ef60a" y="162.256568"/>
     <use style="fill:#0000ff;stroke:#0000ff;stroke-width:1.5;" x="187.343031" xlink:href="#m22334ef60a" y="162.057965"/>
     <use style="fill:#0000ff;stroke:#0000ff;stroke-width:1.5;" x="190.046268" xlink:href="#m22334ef60a" y="163.251779"/>
     <use style="fill:#0000ff;stroke:#0000ff;stroke-width:1.5;" x="191.440632" xlink:href="#m22334ef60a" y="163.560771"/>
     <use style="fill:#0000ff;stroke:#0000ff;stroke-width:1.5;" x="193.123429" xlink:href="#m22334ef60a" y="163.338821"/>
     <use style="fill:#0000ff;stroke:#0000ff;stroke-width:1.5;" x="195.122559" xlink:href="#m22334ef60a" y="161.781527"/>
     <use style="fill:#0000ff;stroke:#0000ff;stroke-width:1.5;" x="196.772264" xlink:href="#m22334ef60a" y="160.931819"/>
     <use style="fill:#0000ff;stroke:#0000ff;stroke-width:1.5;" x="197.364382" xlink:href="#m22334ef60a" y="163.487475"/>
     <use style="fill:#0000ff;stroke:#0000ff;stroke-width:1.5;" x="198.622817" xlink:href="#m22334ef60a" y="163.137771"/>
     <use style="fill:#0000ff;stroke:#0000ff;stroke-width:1.5;" x="204.099933" xlink:href="#m22334ef60a" y="162.670774"/>
     <use style="fill:#0000ff;stroke:#0000ff;stroke-width:1.5;" x="205.511769" xlink:href="#m22334ef60a" y="162.431947"/>
     <use style="fill:#0000ff;stroke:#0000ff;stroke-width:1.5;" x="206.02287" xlink:href="#m22334ef60a" y="162.834485"/>
     <use style="fill:#0000ff;stroke:#0000ff;stroke-width:1.5;" x="208.698878" xlink:href="#m22334ef60a" y="162.082435"/>
     <use style="fill:#0000ff;stroke:#0000ff;stroke-width:1.5;" x="210.309153" xlink:href="#m22334ef60a" y="162.641032"/>
     <use style="fill:#0000ff;stroke:#0000ff;stroke-width:1.5;" x="212.018064" xlink:href="#m22334ef60a" y="162.783602"/>
     <use style="fill:#0000ff;stroke:#0000ff;stroke-width:1.5;" x="214.238621" xlink:href="#m22334ef60a" y="163.313842"/>
     <use style="fill:#0000ff;stroke:#0000ff;stroke-width:1.5;" x="214.502306" xlink:href="#m22334ef60a" y="161.294194"/>
     <use style="fill:#0000ff;stroke:#0000ff;stroke-width:1.5;" x="219.426569" xlink:href="#m22334ef60a" y="162.381605"/>
     <use style="fill:#0000ff;stroke:#0000ff;stroke-width:1.5;" x="220.163053" xlink:href="#m22334ef60a" y="162.94892"/>
     <use style="fill:#0000ff;stroke:#0000ff;stroke-width:1.5;" x="221.321403" xlink:href="#m22334ef60a" y="163.308013"/>
     <use style="fill:#0000ff;stroke:#0000ff;stroke-width:1.5;" x="222.812324" xlink:href="#m22334ef60a" y="163.525448"/>
     <use style="fill:#0000ff;stroke:#0000ff;stroke-width:1.5;" x="227.161517" xlink:href="#m22334ef60a" y="162.754736"/>
     <use style="fill:#0000ff;stroke:#0000ff;stroke-width:1.5;" x="229.451087" xlink:href="#m22334ef60a" y="163.222377"/>
     <use style="fill:#0000ff;stroke:#0000ff;stroke-width:1.5;" x="233.316199" xlink:href="#m22334ef60a" y="163.37523"/>
     <use style="fill:#0000ff;stroke:#0000ff;stroke-width:1.5;" x="234.933296" xlink:href="#m22334ef60a" y="163.079232"/>
     <use style="fill:#0000ff;stroke:#0000ff;stroke-width:1.5;" x="235.713133" xlink:href="#m22334ef60a" y="162.932464"/>
     <use style="fill:#0000ff;stroke:#0000ff;stroke-width:1.5;" x="238.394103" xlink:href="#m22334ef60a" y="163.182308"/>
     <use style="fill:#0000ff;stroke:#0000ff;stroke-width:1.5;" x="239.214156" xlink:href="#m22334ef60a" y="159.642229"/>
     <use style="fill:#0000ff;stroke:#0000ff;stroke-width:1.5;" x="240.68764" xlink:href="#m22334ef60a" y="162.594788"/>
     <use style="fill:#0000ff;stroke:#0000ff;stroke-width:1.5;" x="245.845173" xlink:href="#m22334ef60a" y="163.301071"/>
     <use style="fill:#0000ff;stroke:#0000ff;stroke-width:1.5;" x="248.779359" xlink:href="#m22334ef60a" y="163.567035"/>
     <use style="fill:#0000ff;stroke:#0000ff;stroke-width:1.5;" x="251.868923" xlink:href="#m22334ef60a" y="163.493459"/>
     <use style="fill:#0000ff;stroke:#0000ff;stroke-width:1.5;" x="253.921015" xlink:href="#m22334ef60a" y="163.543714"/>
    </g>
   </g>
   <g id="matplotlib.axis_1">
    <g id="xtick_1">
     <g id="line2d_1">
      <defs>
       <path d="M 0 0 
L 0 3.5 
" id="mf7a2494dc0" style="stroke:#000000;stroke-width:0.8;"/>
      </defs>
      <g>
       <use style="stroke:#000000;stroke-width:0.8;" x="51.064424" xlink:href="#mf7a2494dc0" y="173.52"/>
      </g>
     </g>
     <g id="text_1">
      <!-- $0$ -->
      <defs>
       <path d="M 42 31.84375 
C 42 37.96875 41.90625 48.421875 37.703125 56.453125 
C 34 63.484375 28.09375 66 22.90625 66 
C 18.09375 66 12 63.78125 8.203125 56.5625 
C 4.203125 49.015625 3.796875 39.671875 3.796875 31.84375 
C 3.796875 26.109375 3.90625 17.375 7 9.734375 
C 11.296875 -0.609375 19 -2 22.90625 -2 
C 27.5 -2 34.5 -0.109375 38.59375 9.4375 
C 41.59375 16.375 42 24.5 42 31.84375 
z
M 22.90625 -0.40625 
C 16.5 -0.40625 12.703125 5.125 11.296875 12.75 
C 10.203125 18.6875 10.203125 27.328125 10.203125 32.953125 
C 10.203125 40.6875 10.203125 47.109375 11.5 53.234375 
C 13.40625 61.78125 19 64.390625 22.90625 64.390625 
C 27 64.390625 32.296875 61.671875 34.203125 53.4375 
C 35.5 47.71875 35.59375 40.984375 35.59375 32.953125 
C 35.59375 26.421875 35.59375 18.375 34.40625 12.453125 
C 32.296875 1.5 26.40625 -0.40625 22.90625 -0.40625 
z
" id="CMR17-48"/>
      </defs>
      <g transform="translate(48.573756 187.438498)scale(0.1 -0.1)">
       <use transform="scale(0.996264)" xlink:href="#CMR17-48"/>
      </g>
     </g>
    </g>
    <g id="xtick_2">
     <g id="line2d_2">
      <g>
       <use style="stroke:#000000;stroke-width:0.8;" x="87.456329" xlink:href="#mf7a2494dc0" y="173.52"/>
      </g>
     </g>
     <g id="text_2">
      <!-- $10$ -->
      <defs>
       <path d="M 26.59375 63.796875 
C 26.59375 65.890625 26.5 66 25.09375 66 
C 21.203125 61.359375 15.296875 59.890625 9.703125 59.6875 
C 9.40625 59.6875 8.90625 59.6875 8.796875 59.5 
C 8.703125 59.296875 8.703125 59.09375 8.703125 57 
C 11.796875 57 17 57.59375 21 59.984375 
L 21 7.296875 
C 21 3.796875 20.796875 2.59375 12.203125 2.59375 
L 9.203125 2.59375 
L 9.203125 0 
C 14 0.09375 19 0.1875 23.796875 0.1875 
C 28.59375 0.1875 33.59375 0.09375 38.40625 0 
L 38.40625 2.59375 
L 35.40625 2.59375 
C 26.796875 2.59375 26.59375 3.6875 26.59375 7.296875 
z
" id="CMR17-49"/>
      </defs>
      <g transform="translate(82.474994 187.438498)scale(0.1 -0.1)">
       <use transform="scale(0.996264)" xlink:href="#CMR17-49"/>
       <use transform="translate(45.690477 0)scale(0.996264)" xlink:href="#CMR17-48"/>
      </g>
     </g>
    </g>
    <g id="xtick_3">
     <g id="line2d_3">
      <g>
       <use style="stroke:#000000;stroke-width:0.8;" x="123.848234" xlink:href="#mf7a2494dc0" y="173.52"/>
      </g>
     </g>
     <g id="text_3">
      <!-- $20$ -->
      <defs>
       <path d="M 41.703125 15.46875 
L 39.90625 15.46875 
C 38.90625 8.390625 38.09375 7.1875 37.703125 6.59375 
C 37.203125 5.796875 30 5.796875 28.59375 5.796875 
L 9.40625 5.796875 
C 13 9.6875 20 16.765625 28.5 24.9375 
C 34.59375 30.71875 41.703125 37.5 41.703125 47.390625 
C 41.703125 59.1875 32.296875 66 21.796875 66 
C 10.796875 66 4.09375 56.296875 4.09375 47.296875 
C 4.09375 43.390625 7 42.890625 8.203125 42.890625 
C 9.203125 42.890625 12.203125 43.484375 12.203125 46.984375 
C 12.203125 50.09375 9.59375 51 8.203125 51 
C 7.59375 51 7 50.890625 6.59375 50.6875 
C 8.5 59.1875 14.296875 63.390625 20.40625 63.390625 
C 29.09375 63.390625 34.796875 56.5 34.796875 47.390625 
C 34.796875 38.703125 29.703125 31.21875 24 24.734375 
L 4.09375 2.296875 
L 4.09375 0 
L 39.296875 0 
z
" id="CMR17-50"/>
      </defs>
      <g transform="translate(118.866899 187.438498)scale(0.1 -0.1)">
       <use transform="scale(0.996264)" xlink:href="#CMR17-50"/>
       <use transform="translate(45.690477 0)scale(0.996264)" xlink:href="#CMR17-48"/>
      </g>
     </g>
    </g>
    <g id="xtick_4">
     <g id="line2d_4">
      <g>
       <use style="stroke:#000000;stroke-width:0.8;" x="160.24014" xlink:href="#mf7a2494dc0" y="173.52"/>
      </g>
     </g>
     <g id="text_4">
      <!-- $30$ -->
      <defs>
       <path d="M 22.09375 34 
C 31 34 34.90625 26.140625 34.90625 17.09375 
C 34.90625 5.03125 28.5 0.390625 22.703125 0.390625 
C 17.40625 0.390625 8.796875 3.015625 6.09375 10.796875 
C 6.59375 10.59375 7.09375 10.59375 7.59375 10.59375 
C 10 10.59375 11.796875 12.1875 11.796875 14.796875 
C 11.796875 17.6875 9.59375 19 7.59375 19 
C 5.90625 19 3.296875 18.1875 3.296875 14.484375 
C 3.296875 5.234375 12.296875 -2 22.90625 -2 
C 34 -2 42.5 6.75 42.5 16.984375 
C 42.5 26.84375 34.5 34 25 35.09375 
C 32.59375 36.671875 39.90625 43.375 39.90625 52.390625 
C 39.90625 60.25 32 66 23 66 
C 13.90625 66 5.90625 60.34375 5.90625 52.296875 
C 5.90625 48.796875 8.5 48.1875 9.796875 48.1875 
C 11.90625 48.1875 13.703125 49.484375 13.703125 52.09375 
C 13.703125 54.6875 11.90625 56 9.796875 56 
C 9.40625 56 8.90625 56 8.5 55.796875 
C 11.40625 62.484375 19.296875 63.6875 22.796875 63.6875 
C 26.296875 63.6875 32.90625 61.96875 32.90625 52.296875 
C 32.90625 49.484375 32.5 44.546875 29.09375 40.21875 
C 26.09375 36.390625 22.703125 36.1875 19.40625 35.890625 
C 18.90625 35.890625 16.59375 35.6875 16.203125 35.6875 
C 15.5 35.59375 15.09375 35.5 15.09375 34.796875 
C 15.09375 34.09375 15.203125 34 17.203125 34 
z
" id="CMR17-51"/>
      </defs>
      <g transform="translate(155.258805 187.438498)scale(0.1 -0.1)">
       <use transform="scale(0.996264)" xlink:href="#CMR17-51"/>
       <use transform="translate(45.690477 0)scale(0.996264)" xlink:href="#CMR17-48"/>
      </g>
     </g>
    </g>
    <g id="xtick_5">
     <g id="line2d_5">
      <g>
       <use style="stroke:#000000;stroke-width:0.8;" x="196.632045" xlink:href="#mf7a2494dc0" y="173.52"/>
      </g>
     </g>
     <g id="text_5">
      <!-- $40$ -->
      <defs>
       <path d="M 33.59375 64.796875 
C 33.59375 66.890625 33.5 67 31.703125 67 
L 2 19.59375 
L 2 17 
L 27.796875 17 
L 27.796875 7.1875 
C 27.796875 3.59375 27.59375 2.59375 20.59375 2.59375 
L 18.703125 2.59375 
L 18.703125 0 
C 21.90625 0.1875 27.296875 0.1875 30.703125 0.1875 
C 34.09375 0.1875 39.5 0.1875 42.703125 0 
L 42.703125 2.59375 
L 40.796875 2.59375 
C 33.796875 2.59375 33.59375 3.59375 33.59375 7.1875 
L 33.59375 17 
L 43.796875 17 
L 43.796875 19.59375 
L 33.59375 19.59375 
z
M 28.09375 58.171875 
L 28.09375 19.59375 
L 4 19.59375 
z
" id="CMR17-52"/>
      </defs>
      <g transform="translate(191.65071 187.438498)scale(0.1 -0.1)">
       <use transform="scale(0.996264)" xlink:href="#CMR17-52"/>
       <use transform="translate(45.690477 0)scale(0.996264)" xlink:href="#CMR17-48"/>
      </g>
     </g>
    </g>
    <g id="xtick_6">
     <g id="line2d_6">
      <g>
       <use style="stroke:#000000;stroke-width:0.8;" x="233.023951" xlink:href="#mf7a2494dc0" y="173.52"/>
      </g>
     </g>
     <g id="text_6">
      <!-- $50$ -->
      <defs>
       <path d="M 11.40625 58.59375 
C 12.40625 58.1875 16.5 56.890625 20.703125 56.890625 
C 30 56.890625 35.09375 61.890625 38 64.6875 
C 38 65.484375 38 66 37.40625 66 
C 37.296875 66 37.09375 66 36.296875 65.59375 
C 32.796875 64.09375 28.703125 63 23.703125 63 
C 20.703125 63 16.203125 63.359375 11.296875 65.484375 
C 10.203125 66 10 66 9.90625 66 
C 9.40625 66 9.296875 65.890625 9.296875 63.90625 
L 9.296875 34.859375 
C 9.296875 33.015625 9.296875 32.5 10.296875 32.5 
C 10.796875 32.5 11 32.703125 11.5 33.421875 
C 14.703125 38.046875 19.09375 40 24.09375 40 
C 27.59375 40 35.09375 37.734375 35.09375 20.203125 
C 35.09375 16.984375 35.09375 11.1875 32.09375 6.59375 
C 29.59375 2.484375 25.703125 0.390625 21.40625 0.390625 
C 14.796875 0.390625 8.09375 4.984375 6.296875 12.6875 
C 6.703125 12.59375 7.5 12.390625 7.90625 12.390625 
C 9.203125 12.390625 11.703125 13.09375 11.703125 16.1875 
C 11.703125 18.890625 9.796875 20 7.90625 20 
C 5.59375 20 4.09375 18.59375 4.09375 15.796875 
C 4.09375 7.09375 11 -2 21.59375 -2 
C 31.90625 -2 41.703125 6.890625 41.703125 19.796875 
C 41.703125 32.09375 33.90625 41.59375 24.203125 41.59375 
C 19.09375 41.59375 14.796875 39.6875 11.40625 36 
z
" id="CMR17-53"/>
      </defs>
      <g transform="translate(228.042615 187.438498)scale(0.1 -0.1)">
       <use transform="scale(0.996264)" xlink:href="#CMR17-53"/>
       <use transform="translate(45.690477 0)scale(0.996264)" xlink:href="#CMR17-48"/>
      </g>
     </g>
    </g>
    <g id="text_7">
     <!-- normal mode stifness, $\lambda_i$ -->
     <defs>
      <path d="M 41.5 30.53125 
C 41.5 35.65625 40.5 44 28.703125 44 
C 20.796875 44 16.703125 37.875 15.203125 33.84375 
L 15.09375 33.84375 
L 15.09375 44 
L 3.296875 42.890625 
L 3.296875 40.28125 
C 9.203125 40.28125 10.09375 39.6875 10.09375 34.859375 
L 10.09375 6.921875 
C 10.09375 3.09375 9.703125 2.59375 3.296875 2.59375 
L 3.296875 0 
C 5.703125 0.1875 10.09375 0.1875 12.703125 0.1875 
C 15.296875 0.1875 19.796875 0.1875 22.203125 0 
L 22.203125 2.59375 
C 15.796875 2.59375 15.40625 3 15.40625 6.921875 
L 15.40625 26.21875 
C 15.40625 35.453125 21 42.390625 28 42.390625 
C 35.40625 42.390625 36.203125 35.765625 36.203125 30.9375 
L 36.203125 6.921875 
C 36.203125 3.09375 35.796875 2.59375 29.40625 2.59375 
L 29.40625 0 
C 31.796875 0.1875 36.203125 0.1875 38.796875 0.1875 
C 41.40625 0.1875 45.90625 0.1875 48.296875 0 
L 48.296875 2.59375 
C 41.90625 2.59375 41.5 3 41.5 6.921875 
z
" id="CMR17-110"/>
      <path d="M 43.09375 21.1875 
C 43.09375 34 33.796875 44 22.90625 44 
C 12 44 2.703125 34 2.703125 21.1875 
C 2.703125 8.59375 12 -1 22.90625 -1 
C 33.796875 -1 43.09375 8.59375 43.09375 21.1875 
z
M 22.90625 0.796875 
C 18.203125 0.796875 14.203125 3.59375 11.90625 7.5 
C 9.40625 12 9.09375 17.59375 9.09375 22 
C 9.09375 26.1875 9.296875 31.390625 11.90625 35.890625 
C 13.90625 39.1875 17.796875 42.390625 22.90625 42.390625 
C 27.40625 42.390625 31.203125 39.890625 33.59375 36.390625 
C 36.703125 31.6875 36.703125 25.09375 36.703125 22 
C 36.703125 18.09375 36.5 12.09375 33.796875 7.296875 
C 31 2.6875 26.703125 0.796875 22.90625 0.796875 
z
" id="CMR17-111"/>
      <path d="M 15 23.703125 
C 15 33.34375 19.09375 42.390625 26.59375 42.390625 
C 27.296875 42.390625 28 42.296875 28.703125 41.984375 
C 28.703125 41.984375 26.5 41.28125 26.5 38.671875 
C 26.5 36.265625 28.40625 35.265625 29.90625 35.265625 
C 31.09375 35.265625 33.296875 35.96875 33.296875 38.78125 
C 33.296875 41.984375 30.09375 44 26.703125 44 
C 19.09375 44 15.796875 36.5625 14.796875 33.046875 
L 14.703125 33.046875 
L 14.703125 44 
L 3.09375 42.890625 
L 3.09375 40.28125 
C 9 40.28125 9.90625 39.6875 9.90625 34.859375 
L 9.90625 6.921875 
C 9.90625 3.09375 9.5 2.59375 3.09375 2.59375 
L 3.09375 0 
C 5.5 0.1875 10.09375 0.1875 12.703125 0.1875 
C 15.59375 0.1875 20.703125 0.1875 23.40625 0 
L 23.40625 2.59375 
C 16.203125 2.59375 15 2.59375 15 7.109375 
z
" id="CMR17-114"/>
      <path d="M 67.59375 30.53125 
C 67.59375 35.5625 66.703125 44 54.796875 44 
C 48 44 43.296875 39.375 41.5 33.953125 
L 41.40625 33.953125 
C 40.203125 42.1875 34.296875 44 28.703125 44 
C 20.796875 44 16.703125 37.875 15.203125 33.84375 
L 15.09375 33.84375 
L 15.09375 44 
L 3.296875 42.890625 
L 3.296875 40.28125 
C 9.203125 40.28125 10.09375 39.6875 10.09375 34.859375 
L 10.09375 6.921875 
C 10.09375 3.09375 9.703125 2.59375 3.296875 2.59375 
L 3.296875 0 
C 5.703125 0.1875 10.09375 0.1875 12.703125 0.1875 
C 15.296875 0.1875 19.796875 0.1875 22.203125 0 
L 22.203125 2.59375 
C 15.796875 2.59375 15.40625 3 15.40625 6.921875 
L 15.40625 26.21875 
C 15.40625 35.453125 21 42.390625 28 42.390625 
C 35.40625 42.390625 36.203125 35.765625 36.203125 30.9375 
L 36.203125 6.921875 
C 36.203125 3.09375 35.796875 2.59375 29.40625 2.59375 
L 29.40625 0 
C 31.796875 0.1875 36.203125 0.1875 38.796875 0.1875 
C 41.40625 0.1875 45.90625 0.1875 48.296875 0 
L 48.296875 2.59375 
C 41.90625 2.59375 41.5 3 41.5 6.921875 
L 41.5 26.21875 
C 41.5 35.453125 47.09375 42.390625 54.09375 42.390625 
C 61.5 42.390625 62.296875 35.765625 62.296875 30.9375 
L 62.296875 6.921875 
C 62.296875 3.09375 61.90625 2.59375 55.5 2.59375 
L 55.5 0 
C 57.90625 0.1875 62.296875 0.1875 64.90625 0.1875 
C 67.5 0.1875 72 0.1875 74.40625 0 
L 74.40625 2.59375 
C 68 2.59375 67.59375 3 67.59375 6.921875 
z
" id="CMR17-109"/>
      <path d="M 36 25.875 
C 36 32 36 35.546875 31.796875 39.59375 
C 28.09375 42.984375 23.796875 44 20.40625 44 
C 12.5 44 6.796875 37.625 6.796875 30.890625 
C 6.796875 27.1875 9.796875 27 10.40625 27 
C 11.703125 27 14 27.796875 14 30.59375 
C 14 33.09375 12.09375 34.1875 10.40625 34.1875 
C 10 34.1875 9.5 34.09375 9.203125 34 
C 11.296875 40.53125 16.703125 42.390625 20.203125 42.390625 
C 25.203125 42.390625 30.703125 37.828125 30.703125 29.296875 
L 30.703125 25.5 
C 24.796875 25.296875 17.703125 24.5 12.09375 21.453125 
C 5.796875 17.921875 4 12.84375 4 9 
C 4 1.203125 13 -1 18.296875 -1 
C 23.796875 -1 28.90625 2.109375 31.09375 7.890625 
C 31.296875 3.421875 34.09375 -0.609375 38.5 -0.609375 
C 40.59375 -0.609375 45.90625 0.796875 45.90625 8.796875 
L 45.90625 14.46875 
L 44.09375 14.46875 
L 44.09375 8.703125 
C 44.09375 2.515625 41.40625 1.703125 40.09375 1.703125 
C 36 1.703125 36 6.96875 36 11.4375 
z
M 30.703125 13.859375 
C 30.703125 5.046875 24.5 0.59375 19 0.59375 
C 14 0.59375 10.09375 4.34375 10.09375 9 
C 10.09375 12.046875 11.40625 17.40625 17.203125 20.65625 
C 22 23.390625 27.5 23.796875 30.703125 24 
z
" id="CMR17-97"/>
      <path d="M 15.296875 69 
L 3.40625 67.890625 
L 3.40625 65.296875 
C 9.296875 65.296875 10.203125 64.703125 10.203125 59.921875 
L 10.203125 6.859375 
C 10.203125 3.09375 9.796875 2.59375 3.40625 2.59375 
L 3.40625 0 
C 5.796875 0.1875 10.203125 0.1875 12.703125 0.1875 
C 15.296875 0.1875 19.703125 0.1875 22.09375 0 
L 22.09375 2.59375 
C 15.703125 2.59375 15.296875 2.984375 15.296875 6.859375 
z
" id="CMR17-108"/>
      <path d="M 29.203125 67.890625 
L 29.203125 65.296875 
C 35.09375 65.296875 36 64.703125 36 60.046875 
L 36 37.046875 
C 35.59375 37.546875 31.5 44 23.40625 44 
C 13.203125 44 3.296875 34.8125 3.296875 21.5 
C 3.296875 8.265625 12.59375 -1 22.40625 -1 
C 30.90625 -1 35.296875 5.640625 35.796875 6.34375 
L 35.796875 -1 
L 47.90625 -0.203125 
L 47.90625 2.40625 
C 42 2.40625 41.09375 3.015625 41.09375 7.859375 
L 41.09375 69 
z
M 35.796875 11.90625 
C 35.796875 8.875 34 6.140625 31.703125 4.125 
C 28.296875 1.09375 24.90625 0.59375 23 0.59375 
C 20.09375 0.59375 9.703125 2.109375 9.703125 21.390625 
C 9.703125 41.1875 21.296875 42.390625 23.90625 42.390625 
C 28.5 42.390625 32.203125 39.765625 34.5 36.140625 
C 35.796875 34.015625 35.796875 33.703125 35.796875 31.890625 
z
" id="CMR17-100"/>
      <path d="M 38.09375 23.484375 
C 38.5 23.890625 38.5 24.09375 38.5 25.09375 
C 38.5 35.171875 33.09375 44 21.703125 44 
C 11.09375 44 2.703125 33.984375 2.703125 21.78125 
C 2.703125 8.65625 12.203125 -1 22.796875 -1 
C 34 -1 38.40625 9.671875 38.40625 11.796875 
C 38.40625 12.5 37.796875 12.5 37.59375 12.5 
C 36.90625 12.5 36.796875 12.296875 36.40625 11.078125 
C 34.203125 4.21875 28.703125 0.796875 23.5 0.796875 
C 19.203125 0.796875 14.90625 3.21875 12.203125 7.65625 
C 9.09375 12.796875 9.09375 18.75 9.09375 23.484375 
z
M 9.203125 25 
C 9.90625 39.234375 17.59375 42.390625 21.59375 42.390625 
C 28.40625 42.390625 33 36.0625 33.09375 25 
z
" id="CMR17-101"/>
      <path d="M 30.90625 42 
C 30.90625 43.796875 30.796875 43.890625 30.203125 43.890625 
C 29.796875 43.890625 29.703125 43.796875 28.5 42.296875 
C 28.203125 41.890625 27.296875 40.890625 27 40.5 
C 23.796875 43.890625 19.296875 44 17.59375 44 
C 6.5 44 2.5 38.1875 2.5 32.390625 
C 2.5 23.390625 12.703125 21.296875 15.59375 20.6875 
C 21.90625 19.390625 24.09375 19 26.203125 17.1875 
C 27.5 16 29.703125 13.796875 29.703125 10.1875 
C 29.703125 6 27.296875 0.59375 18.09375 0.59375 
C 9.40625 0.59375 6.296875 7.1875 4.5 16 
C 4.203125 17.390625 4.203125 17.5 3.40625 17.5 
C 2.59375 17.5 2.5 17.390625 2.5 15.390625 
L 2.5 1 
C 2.5 -0.8125 2.59375 -0.90625 3.203125 -0.90625 
C 3.703125 -0.90625 3.796875 -0.8125 4.296875 0 
C 4.90625 0.890625 6.40625 3.296875 7 4.296875 
C 9 1.59375 12.5 -1 18.09375 -1 
C 28 -1 33.296875 4.390625 33.296875 12.1875 
C 33.296875 17.296875 30.59375 20 29.296875 21.1875 
C 26.296875 24.296875 22.796875 25 18.59375 25.796875 
C 13.09375 27 6.09375 28.390625 6.09375 34.5 
C 6.09375 37.09375 7.5 42.59375 17.59375 42.59375 
C 28.296875 42.59375 28.90625 32.59375 29.09375 29.390625 
C 29.203125 28.890625 29.703125 28.796875 30 28.796875 
C 30.90625 28.796875 30.90625 29.09375 30.90625 30.796875 
z
" id="CMR17-115"/>
      <path d="M 15.09375 40.390625 
L 29.09375 40.390625 
L 29.09375 43 
L 15.09375 43 
L 15.09375 62 
L 13.296875 62 
C 13.09375 51.4375 9.59375 42.1875 1.09375 41.984375 
L 1.09375 40.390625 
L 9.796875 40.390625 
L 9.796875 12.15625 
C 9.796875 10.234375 9.796875 -1 21.40625 -1 
C 27.296875 -1 30.703125 4.8125 30.703125 12.25 
L 30.703125 17.984375 
L 28.90625 17.984375 
L 28.90625 12.34375 
C 28.90625 5.421875 26.203125 0.796875 22 0.796875 
C 19.09375 0.796875 15.09375 2.796875 15.09375 11.953125 
z
" id="CMR17-116"/>
      <path d="M 15.5 61.890625 
C 15.5 64.09375 13.703125 66 11.40625 66 
C 9.203125 66 7.296875 64.1875 7.296875 61.890625 
C 7.296875 59.6875 9.09375 57.796875 11.40625 57.796875 
C 13.59375 57.796875 15.5 59.59375 15.5 61.890625 
z
M 3.796875 42.890625 
L 3.796875 40.296875 
C 9.40625 40.296875 10.203125 39.6875 10.203125 34.859375 
L 10.203125 6.921875 
C 10.203125 3.09375 9.796875 2.59375 3.40625 2.59375 
L 3.40625 0 
C 5.796875 0.1875 10.09375 0.1875 12.59375 0.1875 
C 15 0.1875 19.09375 0.1875 21.40625 0 
L 21.40625 2.59375 
C 15.5 2.59375 15.296875 3.203125 15.296875 6.8125 
L 15.296875 44 
z
" id="CMR17-105"/>
      <path d="M 15.296875 40.390625 
L 26.703125 40.390625 
L 26.703125 43 
L 15.09375 43 
L 15.09375 55.296875 
C 15.09375 63.6875 19.296875 68.390625 23.59375 68.390625 
C 24.90625 68.390625 26.40625 68.171875 27.40625 67.796875 
C 26.59375 67.59375 24.5 66.890625 24.5 64.390625 
C 24.5 61.796875 26.5 61 27.90625 61 
C 29.296875 61 31.296875 61.796875 31.296875 64.390625 
C 31.296875 68.015625 27.703125 70 23.703125 70 
C 18 70 10.203125 65.796875 10.203125 55.09375 
L 10.203125 43 
L 2.203125 43 
L 2.203125 40.390625 
L 10.203125 40.390625 
L 10.203125 6.890625 
C 10.203125 3.09375 9.796875 2.59375 3.40625 2.59375 
L 3.40625 0 
C 5.796875 0.1875 10.40625 0.1875 13 0.1875 
C 15.90625 0.1875 21 0.1875 23.703125 0 
L 23.703125 2.59375 
C 16.5 2.59375 15.296875 2.59375 15.296875 7.09375 
z
" id="CMR17-102"/>
      <path d="M 15.796875 1.59375 
C 16 0.6875 16 0.390625 16 -1.1875 
C 16 -7.046875 14 -12.421875 9.796875 -17.3125 
C 9.296875 -17.8125 9.296875 -18 9.296875 -18.203125 
C 9.296875 -18.609375 9.703125 -19 10.09375 -19 
C 10.703125 -19 17.59375 -12.125 17.59375 -1.28125 
C 17.59375 2 17.203125 8.1875 12.5 8.1875 
C 10.296875 8.1875 8.40625 6.6875 8.40625 4.09375 
C 8.40625 1.5 10.296875 0 12.5 0 
C 13.703125 0 15 0.5 15.796875 1.59375 
z
" id="CMR17-44"/>
      <path d="M 30.90625 61.921875 
C 28.40625 69 20.5 69 19.203125 69 
C 18.59375 69 17.5 69 17.5 67.984375 
C 17.5 67.1875 18.09375 67.09375 18.59375 66.984375 
C 20.09375 66.796875 21.296875 66.59375 22.90625 63.71875 
C 23.90625 61.828125 34.203125 32.109375 34.203125 31.90625 
C 34.203125 31.8125 34.09375 31.703125 33.296875 30.90625 
L 7.296875 4.765625 
C 6.09375 3.578125 5.296875 2.78125 5.296875 1.484375 
C 5.296875 0.09375 6.5 -1.109375 8.09375 -1.109375 
C 8.5 -1.109375 9.59375 -0.90625 10.203125 -0.3125 
C 11.796875 1.1875 26.09375 18.59375 35.203125 29.328125 
C 37.796875 21.5625 41 12.421875 44.09375 4.078125 
C 44.59375 2.578125 45.09375 1.1875 46.5 -0.109375 
C 47.5 -1 47.703125 -1 50.5 -1 
L 52.40625 -1 
C 52.796875 -1 53.5 -1 53.5 -0.203125 
C 53.5 0.1875 53.40625 0.296875 53 0.6875 
C 52.09375 1.78125 51.40625 3.578125 51 4.765625 
z
" id="CMMI12-21"/>
      <path d="M 28.296875 14.265625 
C 28.296875 14.765625 27.90625 15.15625 27.296875 15.15625 
C 26.40625 15.15625 26.296875 14.859375 25.796875 13.15625 
C 23.203125 4.078125 19.09375 1 15.796875 1 
C 14.59375 1 13.203125 1.296875 13.203125 4.28125 
C 13.203125 6.984375 14.40625 9.96875 15.5 12.96875 
L 22.5 31.515625 
C 22.796875 32.3125 23.5 34.109375 23.5 36.015625 
C 23.5 40.203125 20.5 44 15.59375 44 
C 6.40625 44 2.703125 29.53125 2.703125 28.71875 
C 2.703125 28.328125 3.09375 27.828125 3.796875 27.828125 
C 4.703125 27.828125 4.796875 28.234375 5.203125 29.625 
C 7.59375 38 11.40625 41.984375 15.296875 41.984375 
C 16.203125 41.984375 17.90625 41.890625 17.90625 38.703125 
C 17.90625 36.109375 16.59375 32.8125 15.796875 30.625 
L 8.796875 12.0625 
C 8.203125 10.46875 7.59375 8.875 7.59375 7.078125 
C 7.59375 2.59375 10.703125 -1 15.5 -1 
C 24.703125 -1 28.296875 13.5625 28.296875 14.265625 
z
M 27.5 62.6875 
C 27.5 64.1875 26.296875 66 24.09375 66 
C 21.796875 66 19.203125 63.796875 19.203125 61.1875 
C 19.203125 58.6875 21.296875 57.890625 22.5 57.890625 
C 25.203125 57.890625 27.5 60.484375 27.5 62.6875 
z
" id="CMMI12-105"/>
     </defs>
     <g transform="translate(99.097644 200.294175)scale(0.1 -0.1)">
      <use transform="translate(0 14.943915)scale(0.996264)" xlink:href="#CMR17-110"/>
      <use transform="translate(50.89537 14.943915)scale(0.996264)" xlink:href="#CMR17-111"/>
      <use transform="translate(96.585847 14.943915)scale(0.996264)" xlink:href="#CMR17-114"/>
      <use transform="translate(131.866615 14.943915)scale(0.996264)" xlink:href="#CMR17-109"/>
      <use transform="translate(208.786205 14.943915)scale(0.996264)" xlink:href="#CMR17-97"/>
      <use transform="translate(254.476682 14.943915)scale(0.996264)" xlink:href="#CMR17-108"/>
      <use transform="translate(309.423707 14.943915)scale(0.996264)" xlink:href="#CMR17-109"/>
      <use transform="translate(386.343296 14.943915)scale(0.996264)" xlink:href="#CMR17-111"/>
      <use transform="translate(434.636212 14.943915)scale(0.996264)" xlink:href="#CMR17-100"/>
      <use transform="translate(485.531582 14.943915)scale(0.996264)" xlink:href="#CMR17-101"/>
      <use transform="translate(556.093209 14.943915)scale(0.996264)" xlink:href="#CMR17-115"/>
      <use transform="translate(591.894546 14.943915)scale(0.996264)" xlink:href="#CMR17-116"/>
      <use transform="translate(627.175314 14.943915)scale(0.996264)" xlink:href="#CMR17-105"/>
      <use transform="translate(652.046373 14.943915)scale(0.996264)" xlink:href="#CMR17-102"/>
      <use transform="translate(679.519885 14.943915)scale(0.996264)" xlink:href="#CMR17-110"/>
      <use transform="translate(730.415255 14.943915)scale(0.996264)" xlink:href="#CMR17-101"/>
      <use transform="translate(770.900915 14.943915)scale(0.996264)" xlink:href="#CMR17-115"/>
      <use transform="translate(806.702253 14.943915)scale(0.996264)" xlink:href="#CMR17-115"/>
      <use transform="translate(842.503591 14.943915)scale(0.996264)" xlink:href="#CMR17-44"/>
      <use transform="translate(897.450615 14.943915)scale(0.996264)" xlink:href="#CMMI12-21"/>
      <use transform="translate(954.354687 0)scale(0.697382)" xlink:href="#CMMI12-105"/>
     </g>
    </g>
   </g>
   <g id="matplotlib.axis_2">
    <g id="ytick_1">
     <g id="line2d_7">
      <defs>
       <path d="M 0 0 
L -3.5 0 
" id="m8551073962" style="stroke:#000000;stroke-width:0.8;"/>
      </defs>
      <g>
       <use style="stroke:#000000;stroke-width:0.8;" x="40.892719" xlink:href="#m8551073962" y="163.578851"/>
      </g>
     </g>
     <g id="text_8">
      <!-- $0.0$ -->
      <defs>
       <path d="M 18.40625 4.796875 
C 18.40625 7.6875 16 9.6875 13.59375 9.6875 
C 10.703125 9.6875 8.703125 7.296875 8.703125 4.890625 
C 8.703125 2 11.09375 0 13.5 0 
C 16.40625 0 18.40625 2.390625 18.40625 4.796875 
z
" id="CMMI12-58"/>
      </defs>
      <g transform="translate(21.16264 167.0381)scale(0.1 -0.1)">
       <use transform="scale(0.996264)" xlink:href="#CMR17-48"/>
       <use transform="translate(45.690477 0)scale(0.996264)" xlink:href="#CMMI12-58"/>
       <use transform="translate(72.787654 0)scale(0.996264)" xlink:href="#CMR17-48"/>
      </g>
     </g>
    </g>
    <g id="ytick_2">
     <g id="line2d_8">
      <g>
       <use style="stroke:#000000;stroke-width:0.8;" x="40.892719" xlink:href="#m8551073962" y="138.938536"/>
      </g>
     </g>
     <g id="text_9">
      <!-- $0.1$ -->
      <g transform="translate(21.16264 142.397785)scale(0.1 -0.1)">
       <use transform="scale(0.996264)" xlink:href="#CMR17-48"/>
       <use transform="translate(45.690477 0)scale(0.996264)" xlink:href="#CMMI12-58"/>
       <use transform="translate(72.787654 0)scale(0.996264)" xlink:href="#CMR17-49"/>
      </g>
     </g>
    </g>
    <g id="ytick_3">
     <g id="line2d_9">
      <g>
       <use style="stroke:#000000;stroke-width:0.8;" x="40.892719" xlink:href="#m8551073962" y="114.298221"/>
      </g>
     </g>
     <g id="text_10">
      <!-- $0.2$ -->
      <g transform="translate(21.16264 117.757471)scale(0.1 -0.1)">
       <use transform="scale(0.996264)" xlink:href="#CMR17-48"/>
       <use transform="translate(45.690477 0)scale(0.996264)" xlink:href="#CMMI12-58"/>
       <use transform="translate(72.787654 0)scale(0.996264)" xlink:href="#CMR17-50"/>
      </g>
     </g>
    </g>
    <g id="ytick_4">
     <g id="line2d_10">
      <g>
       <use style="stroke:#000000;stroke-width:0.8;" x="40.892719" xlink:href="#m8551073962" y="89.657907"/>
      </g>
     </g>
     <g id="text_11">
      <!-- $0.3$ -->
      <g transform="translate(21.16264 93.117156)scale(0.1 -0.1)">
       <use transform="scale(0.996264)" xlink:href="#CMR17-48"/>
       <use transform="translate(45.690477 0)scale(0.996264)" xlink:href="#CMMI12-58"/>
       <use transform="translate(72.787654 0)scale(0.996264)" xlink:href="#CMR17-51"/>
      </g>
     </g>
    </g>
    <g id="ytick_5">
     <g id="line2d_11">
      <g>
       <use style="stroke:#000000;stroke-width:0.8;" x="40.892719" xlink:href="#m8551073962" y="65.017592"/>
      </g>
     </g>
     <g id="text_12">
      <!-- $0.4$ -->
      <g transform="translate(21.16264 68.476841)scale(0.1 -0.1)">
       <use transform="scale(0.996264)" xlink:href="#CMR17-48"/>
       <use transform="translate(45.690477 0)scale(0.996264)" xlink:href="#CMMI12-58"/>
       <use transform="translate(72.787654 0)scale(0.996264)" xlink:href="#CMR17-52"/>
      </g>
     </g>
    </g>
    <g id="ytick_6">
     <g id="line2d_12">
      <g>
       <use style="stroke:#000000;stroke-width:0.8;" x="40.892719" xlink:href="#m8551073962" y="40.377277"/>
      </g>
     </g>
     <g id="text_13">
      <!-- $0.5$ -->
      <g transform="translate(21.16264 43.836526)scale(0.1 -0.1)">
       <use transform="scale(0.996264)" xlink:href="#CMR17-48"/>
       <use transform="translate(45.690477 0)scale(0.996264)" xlink:href="#CMMI12-58"/>
       <use transform="translate(72.787654 0)scale(0.996264)" xlink:href="#CMR17-53"/>
      </g>
     </g>
    </g>
    <g id="ytick_7">
     <g id="line2d_13">
      <g>
       <use style="stroke:#000000;stroke-width:0.8;" x="40.892719" xlink:href="#m8551073962" y="15.736963"/>
      </g>
     </g>
     <g id="text_14">
      <!-- $0.6$ -->
      <defs>
       <path d="M 10.59375 34.34375 
C 10.59375 58 21.796875 63.6875 28.296875 63.6875 
C 30.40625 63.6875 35.5 63.265625 37.5 59.09375 
C 35.90625 59.09375 32.90625 59.09375 32.90625 55.59375 
C 32.90625 52.890625 35.09375 52 36.5 52 
C 37.40625 52 40.09375 52.390625 40.09375 55.796875 
C 40.09375 62.296875 35.09375 66 28.203125 66 
C 16.296875 66 3.796875 53.296875 3.796875 31.421875 
C 3.796875 4.015625 15.09375 -2 23.09375 -2 
C 32.796875 -2 42 6.734375 42 20.234375 
C 42 32.828125 33.90625 42 23.703125 42 
C 17.59375 42 13.09375 37.96875 10.59375 30.921875 
z
M 23.09375 0.390625 
C 10.796875 0.390625 10.796875 18.9375 10.796875 22.65625 
C 10.796875 29.90625 14.203125 40.390625 23.5 40.390625 
C 25.203125 40.390625 30.09375 40.390625 33.40625 33.4375 
C 35.203125 29.515625 35.203125 25.375 35.203125 20.34375 
C 35.203125 14.90625 35.203125 10.875 33.09375 6.84375 
C 30.90625 2.703125 27.703125 0.390625 23.09375 0.390625 
z
" id="CMR17-54"/>
      </defs>
      <g transform="translate(21.16264 19.196212)scale(0.1 -0.1)">
       <use transform="scale(0.996264)" xlink:href="#CMR17-48"/>
       <use transform="translate(45.690477 0)scale(0.996264)" xlink:href="#CMMI12-58"/>
       <use transform="translate(72.787654 0)scale(0.996264)" xlink:href="#CMR17-54"/>
      </g>
     </g>
    </g>
    <g id="text_15">
     <!-- Overlap, $||dr \cdot v_i || $ -->
     <defs>
      <path d="M 67.296875 33.84375 
C 67.296875 54.5 52.59375 70 36 70 
C 19 70 4.59375 54.296875 4.59375 33.84375 
C 4.59375 13.390625 19.203125 -2 35.90625 -2 
C 53 -2 67.296875 13.6875 67.296875 33.84375 
z
M 36 -0.203125 
C 24.59375 -0.203125 12.203125 11.28125 12.203125 35.15625 
C 12.203125 58.921875 25.796875 68.1875 35.90625 68.1875 
C 46.5 68.1875 59.703125 58.625 59.703125 35.15625 
C 59.703125 10.875 47 -0.203125 36 -0.203125 
z
" id="CMR17-79"/>
      <path d="M 39.09375 33.953125 
C 40 36.171875 41.59375 40.1875 47.40625 40.390625 
L 47.40625 43 
C 45.5 42.890625 43 42.796875 41.09375 42.796875 
C 39 42.796875 35.703125 42.796875 33.703125 43 
L 33.703125 40.390625 
C 36.203125 40.1875 37.59375 38.984375 37.59375 36.375 
C 37.59375 35.46875 37.59375 35.265625 37 33.859375 
L 26 5.921875 
L 14.09375 36.0625 
C 13.5 37.375 13.5 37.578125 13.5 37.984375 
C 13.5 40.390625 16.796875 40.390625 18.296875 40.390625 
L 18.296875 43 
C 15.90625 42.796875 11.5 42.796875 9 42.796875 
C 6.296875 42.796875 3.203125 42.796875 1 43 
L 1 40.390625 
C 4.796875 40.390625 6.90625 40.390625 8.09375 37.28125 
L 22.59375 0.6875 
C 23.203125 -0.8125 23.296875 -1 24.203125 -1 
C 25.09375 -1 25.203125 -0.8125 25.796875 0.6875 
z
" id="CMR17-118"/>
      <path d="M 22 -17.40625 
C 15.59375 -17.40625 15.203125 -17 15.203125 -13.03125 
L 15.203125 5.9375 
C 18.09375 1.703125 22.296875 -1 27.59375 -1 
C 37.59375 -1 47.703125 7.859375 47.703125 21.59375 
C 47.703125 34.3125 39 44 28.703125 44 
C 22.703125 44 17.796875 40.671875 15 36.640625 
L 15 44 
L 3.09375 42.890625 
L 3.09375 40.265625 
C 9 40.265625 9.90625 39.671875 9.90625 34.8125 
L 9.90625 -13.03125 
C 9.90625 -16.890625 9.5 -17.40625 3.09375 -17.40625 
L 3.09375 -20 
C 5.5 -19.8125 9.90625 -19.8125 12.5 -19.8125 
C 15.09375 -19.8125 19.59375 -19.8125 22 -20 
z
M 15.203125 31.484375 
C 15.203125 32.90625 15.203125 35.015625 19.09375 38.765625 
C 19.59375 39.15625 23 42.1875 28 42.1875 
C 35.296875 42.1875 41.296875 33 41.296875 21.5 
C 41.296875 9.984375 34.90625 0.59375 27 0.59375 
C 23.40625 0.59375 19.5 2.3125 16.5 7.046875 
C 15.203125 9.28125 15.203125 9.875 15.203125 11.5 
z
" id="CMR17-112"/>
      <path d="M 15.90625 71.390625 
C 15.90625 73.1875 15.90625 75 13.90625 75 
C 11.90625 75 11.90625 73.1875 11.90625 71.390625 
L 11.90625 -21.40625 
C 11.90625 -23.203125 11.90625 -25 13.90625 -25 
C 15.90625 -25 15.90625 -23.203125 15.90625 -21.40625 
z
" id="CMSY10-106"/>
      <path d="M 50.296875 66.484375 
C 50.40625 66.890625 50.59375 67.484375 50.59375 67.984375 
C 50.59375 69 49.59375 69 49.40625 69 
C 49.296875 69 44.40625 68.59375 43.90625 68.484375 
C 42.203125 68.390625 40.703125 68.1875 38.90625 68.09375 
C 36.40625 67.890625 35.703125 67.796875 35.703125 65.984375 
C 35.703125 64.984375 36.5 64.984375 37.90625 64.984375 
C 42.796875 64.984375 42.90625 64.109375 42.90625 63.125 
C 42.90625 62.53125 42.703125 61.734375 42.59375 61.4375 
L 36.5 37.40625 
C 35.40625 40 32.703125 44 27.5 44 
C 16.203125 44 4 29.421875 4 14.65625 
C 4 4.78125 9.796875 -1 16.59375 -1 
C 22.09375 -1 26.796875 3.28125 29.59375 6.578125 
C 30.59375 0.6875 35.296875 -1 38.296875 -1 
C 41.296875 -1 43.703125 0.796875 45.5 4.390625 
C 47.09375 7.78125 48.5 13.859375 48.5 14.265625 
C 48.5 14.765625 48.09375 15.15625 47.5 15.15625 
C 46.59375 15.15625 46.5 14.65625 46.09375 13.15625 
C 44.59375 7.28125 42.703125 1 38.59375 1 
C 35.703125 1 35.5 3.59375 35.5 5.578125 
C 35.5 5.984375 35.5 8.078125 36.203125 10.875 
z
M 30.09375 11.859375 
C 29.59375 10.171875 29.59375 9.96875 28.203125 8.078125 
C 26 5.28125 21.59375 1 16.90625 1 
C 12.796875 1 10.5 4.6875 10.5 10.5625 
C 10.5 16.0625 13.59375 27.234375 15.5 31.421875 
C 18.90625 38.40625 23.59375 41.984375 27.5 41.984375 
C 34.09375 41.984375 35.40625 33.8125 35.40625 33.015625 
C 35.40625 32.921875 35.09375 31.625 35 31.421875 
z
" id="CMMI12-100"/>
      <path d="M 38.90625 41.140625 
C 35.796875 40.59375 34.203125 38.390625 34.203125 36.1875 
C 34.203125 33.796875 36.09375 32.984375 37.5 32.984375 
C 40.296875 32.984375 42.59375 35.390625 42.59375 38.390625 
C 42.59375 41.421875 39.5 44 34.5 44 
C 30.5 44 25.90625 42.1875 21.703125 36.484375 
C 21 41.5625 17 44 13 44 
C 9.09375 44 7.09375 41.28125 5.90625 39.1875 
C 4.203125 35.59375 2.703125 29.5625 2.703125 29.0625 
C 2.703125 28.65625 3.09375 28.140625 3.796875 28.140625 
C 4.59375 28.140625 4.703125 28.25 5.296875 30.578125 
C 6.796875 36.59375 8.703125 41.984375 12.703125 41.984375 
C 15.09375 41.984375 15.796875 40.6875 15.796875 37.796875 
C 15.796875 35.59375 14.796875 31.6875 14.09375 28.546875 
L 11.296875 17.65625 
C 10.90625 15.734375 9.796875 11.1875 9.296875 9.375 
C 8.59375 6.75 7.5 2 7.5 1.5 
C 7.5 0.09375 8.59375 -1 10.09375 -1 
C 11.203125 -1 13.09375 -0.3125 13.703125 1.703125 
C 14 2.5 17.703125 17.75 18.296875 20.078125 
C 18.796875 22.296875 19.40625 24.40625 19.90625 26.640625 
C 20.296875 28.046875 20.703125 29.65625 21 30.96875 
C 21.296875 31.875 24 36.796875 26.5 38.984375 
C 27.703125 40.09375 30.296875 41.984375 34.40625 41.984375 
C 36 41.984375 37.59375 41.78125 38.90625 41.140625 
z
" id="CMMI12-114"/>
      <path d="M 19.203125 25.296875 
C 19.203125 28.1875 16.796875 30.59375 13.90625 30.59375 
C 11 30.59375 8.59375 28.1875 8.59375 25.296875 
C 8.59375 22.390625 11 20 13.90625 20 
C 16.796875 20 19.203125 22.390625 19.203125 25.296875 
z
" id="CMSY10-1"/>
      <path d="M 45.703125 37.3125 
C 45.703125 43.59375 42.5 44 41.703125 44 
C 39.296875 44 37.09375 41.59375 37.09375 39.59375 
C 37.09375 38.40625 37.796875 37.703125 38.203125 37.3125 
C 39.203125 36.40625 41.796875 33.71875 41.796875 28.53125 
C 41.796875 24.34375 35.796875 1 23.796875 1 
C 17.703125 1 16.5 6.078125 16.5 9.765625 
C 16.5 14.765625 18.796875 21.75 21.5 28.921875 
C 23.09375 33.015625 23.5 34.015625 23.5 36.015625 
C 23.5 40.203125 20.5 44 15.59375 44 
C 6.40625 44 2.703125 29.53125 2.703125 28.71875 
C 2.703125 28.328125 3.09375 27.828125 3.796875 27.828125 
C 4.703125 27.828125 4.796875 28.234375 5.203125 29.625 
C 7.59375 38.203125 11.5 41.984375 15.296875 41.984375 
C 16.203125 41.984375 17.90625 41.984375 17.90625 38.703125 
C 17.90625 36.109375 16.796875 33.21875 15.296875 29.421875 
C 10.5 16.65625 10.5 13.5625 10.5 11.171875 
C 10.5 8.96875 10.796875 4.890625 13.90625 2.09375 
C 17.5 -1 22.5 -1 23.40625 -1 
C 40 -1 45.703125 31.625 45.703125 37.3125 
z
" id="CMMI12-118"/>
     </defs>
     <g transform="translate(15.225462 128.759717)rotate(-90)scale(0.1 -0.1)">
      <use transform="translate(0 14.943915)scale(0.996264)" xlink:href="#CMR17-79"/>
      <use transform="translate(71.714788 14.943915)scale(0.996264)" xlink:href="#CMR17-118"/>
      <use transform="translate(117.40525 14.943915)scale(0.996264)" xlink:href="#CMR17-101"/>
      <use transform="translate(157.890911 14.943915)scale(0.996264)" xlink:href="#CMR17-114"/>
      <use transform="translate(193.171679 14.943915)scale(0.996264)" xlink:href="#CMR17-108"/>
      <use transform="translate(218.042737 14.943915)scale(0.996264)" xlink:href="#CMR17-97"/>
      <use transform="translate(263.733214 14.943915)scale(0.996264)" xlink:href="#CMR17-112"/>
      <use transform="translate(314.628584 14.943915)scale(0.996264)" xlink:href="#CMR17-44"/>
      <use transform="translate(369.575609 14.943915)scale(0.996264)" xlink:href="#CMSY10-106"/>
      <use transform="translate(397.249694 14.943915)scale(0.996264)" xlink:href="#CMSY10-106"/>
      <use transform="translate(424.923778 14.943915)scale(0.996264)" xlink:href="#CMMI12-100"/>
      <use transform="translate(475.612875 14.943915)scale(0.996264)" xlink:href="#CMMI12-114"/>
      <use transform="translate(544.422694 14.943915)scale(0.996264)" xlink:href="#CMSY10-1"/>
      <use transform="translate(594.235986 14.943915)scale(0.996264)" xlink:href="#CMMI12-118"/>
      <use transform="translate(641.396566 0)scale(0.697382)" xlink:href="#CMMI12-105"/>
      <use transform="translate(665.189606 14.943915)scale(0.996264)" xlink:href="#CMSY10-106"/>
      <use transform="translate(692.86369 14.943915)scale(0.996264)" xlink:href="#CMSY10-106"/>
     </g>
    </g>
   </g>
   <g id="patch_3">
    <path d="M 40.892719 173.52 
L 40.892719 7.2 
" style="fill:none;stroke:#000000;stroke-linecap:square;stroke-linejoin:miter;stroke-width:0.8;"/>
   </g>
   <g id="patch_4">
    <path d="M 264.092719 173.52 
L 264.092719 7.2 
" style="fill:none;stroke:#000000;stroke-linecap:square;stroke-linejoin:miter;stroke-width:0.8;"/>
   </g>
   <g id="patch_5">
    <path d="M 40.892719 173.52 
L 264.092719 173.52 
" style="fill:none;stroke:#000000;stroke-linecap:square;stroke-linejoin:miter;stroke-width:0.8;"/>
   </g>
   <g id="patch_6">
    <path d="M 40.892719 7.2 
L 264.092719 7.2 
" style="fill:none;stroke:#000000;stroke-linecap:square;stroke-linejoin:miter;stroke-width:0.8;"/>
   </g>
  </g>
 </g>
 <defs>
  <clipPath id="p3364f764a5">
   <rect height="166.32" width="223.2" x="40.892719" y="7.2"/>
  </clipPath>
 </defs>
</svg>
